<?xml version="1.0" encoding="UTF-8" standalone="no"?>
<!-- Svg Vector Icons : http://www.onlinewebfonts.com/icon -->

<svg
   xmlns:dc="http://purl.org/dc/elements/1.1/"
   xmlns:cc="http://creativecommons.org/ns#"
   xmlns:rdf="http://www.w3.org/1999/02/22-rdf-syntax-ns#"
   xmlns:svg="http://www.w3.org/2000/svg"
   xmlns="http://www.w3.org/2000/svg"
   xmlns:sodipodi="http://sodipodi.sourceforge.net/DTD/sodipodi-0.dtd"
   xmlns:inkscape="http://www.inkscape.org/namespaces/inkscape"
   version="1.1"
   x="0px"
   y="0px"
   viewBox="0 0 1000 1000"
   enable-background="new 0 0 1000 1000"
   xml:space="preserve"
   id="svg2"
   inkscape:version="0.91 r13725"
   width="100%"
   height="100%"
   sodipodi:docname="download.svg"><defs
     id="defs47" /><sodipodi:namedview
     pagecolor="#ffffff"
     bordercolor="#666666"
     borderopacity="1"
     objecttolerance="10"
     gridtolerance="10"
     guidetolerance="10"
     inkscape:pageopacity="0"
     inkscape:pageshadow="2"
     inkscape:window-width="2495"
     inkscape:window-height="1056"
     id="namedview45"
     showgrid="false"
     inkscape:zoom="1.3350176"
     inkscape:cx="302.54931"
     inkscape:cy="545.26706"
     inkscape:window-x="65"
     inkscape:window-y="24"
     inkscape:window-maximized="1"
     inkscape:current-layer="g11" /><metadata
     id="metadata4"> Svg Vector Icons : http://www.onlinewebfonts.com/icon <rdf:RDF><cc:Work
     rdf:about=""><dc:format>image/svg+xml</dc:format><dc:type
       rdf:resource="http://purl.org/dc/dcmitype/StillImage" /><dc:title></dc:title></cc:Work></rdf:RDF></metadata><g
     style="fill:#878787;fill-opacity:0.94117647;stroke:none"
     id="g8"><g
       id="g11"
       style="fill:#878787;fill-opacity:0.94117647;stroke:none"><path
         style="fill:#878787;fill-opacity:0.94117647;stroke:none"
         d="m 545,948.5 c -7.8,7.8 -18.6,12.7 -30.6,12.7 -11.9,0 -22.7,-4.8 -30.6,-12.7 L 368.6,833.2 c -7.8,-7.8 -12.7,-18.6 -12.7,-30.6 0,-23.9 19.4,-43.2 43.2,-43.2 11.9,0 22.7,4.8 30.6,12.7 l 41.5,41.5 0,-270.7 c -17.4,-13.1 -28.8,-33.8 -28.8,-57.3 0,-39.8 32.3,-72.1 72.1,-72.1 39.8,0 72.1,32.3 72.1,72.1 0,23.5 -11.4,44.2 -28.8,57.3 l 0,270.7 41.5,-41.5 c 7.8,-7.8 18.6,-12.7 30.6,-12.7 23.9,0 43.2,19.4 43.2,43.2 0,11.9 -4.8,22.7 -12.7,30.6 L 545,948.5 Z"
         id="path4184"
         inkscape:connector-curvature="0" /><path
         style="fill:#878787;fill-opacity:0.94117647;stroke:none"
         d="m 874.7,370.3 c 0,-117 -93,-212.1 -209.1,-215.8 C 610.2,84.1 524.5,38.8 427.9,38.8 267,38.8 135.9,164.4 126.2,322.8 57.2,358.9 10,431.1 10,514.4 c 0,119.4 96.8,216.2 216.2,216.2 l 57.6,0 c 23.9,0 43.2,-19.4 43.2,-43.2 0,-23.8 -19.4,-43.2 -43.2,-43.2 l -57.6,0 C 154.7,644.2 96.5,586 96.5,514.5 c 0,-48.4 26.7,-92.4 69.8,-114.9 l 43.3,-22.6 3,-48.7 C 219.5,214.6 314.2,125.5 428,125.5 c 66.5,0 128.4,30.1 169.8,82.7 l 24.9,31.6 40.2,1.3 c 70.3,2.3 125.4,59.1 125.4,129.4 l 0,57.6 53.2,22.2 c 37.7,15.7 62.1,52.3 62.1,93.1 0,55.6 -45.3,100.9 -100.9,100.9 l -57.7,0 c -23.9,0 -43.2,19.4 -43.2,43.2 0,23.8 19.4,43.2 43.2,43.2 l 57.6,0 c 103.5,0 187.4,-83.9 187.4,-187.4 0,-78 -47.6,-144.8 -115.3,-173 z"
         id="path13" /></g></g><g
     style="fill:#878787;fill-opacity:0.94117647;stroke:none"
     id="g15" /><g
     style="fill:#878787;fill-opacity:0.94117647;stroke:none"
     id="g17" /><g
     style="fill:#878787;fill-opacity:0.94117647;stroke:none"
     id="g19" /><g
     style="fill:#878787;fill-opacity:0.94117647;stroke:none"
     id="g21" /><g
     style="fill:#878787;fill-opacity:0.94117647;stroke:none"
     id="g23" /><g
     style="fill:#878787;fill-opacity:0.94117647;stroke:none"
     id="g25" /><g
     style="fill:#878787;fill-opacity:0.94117647;stroke:none"
     id="g27" /><g
     style="fill:#878787;fill-opacity:0.94117647;stroke:none"
     id="g29" /><g
     style="fill:#878787;fill-opacity:0.94117647;stroke:none"
     id="g31" /><g
     style="fill:#878787;fill-opacity:0.94117647;stroke:none"
     id="g33" /><g
     style="fill:#878787;fill-opacity:0.94117647;stroke:none"
     id="g35" /><g
     style="fill:#878787;fill-opacity:0.94117647;stroke:none"
     id="g37" /><g
     style="fill:#878787;fill-opacity:0.94117647;stroke:none"
     id="g39" /><g
     style="fill:#878787;fill-opacity:0.94117647;stroke:none"
     id="g41" /><g
     style="fill:#878787;fill-opacity:0.94117647;stroke:none"
     id="g43" /></svg>