<?xml version="1.0" encoding="UTF-8" standalone="no"?>
<!-- Created with Inkscape (http://www.inkscape.org/) -->

<svg
        xmlns:dc="http://purl.org/dc/elements/1.1/"
        xmlns:cc="http://creativecommons.org/ns#"
        xmlns:rdf="http://www.w3.org/1999/02/22-rdf-syntax-ns#"
        xmlns:svg="http://www.w3.org/2000/svg"
        xmlns="http://www.w3.org/2000/svg"
        xmlns:sodipodi="http://sodipodi.sourceforge.net/DTD/sodipodi-0.dtd"
        xmlns:inkscape="http://www.inkscape.org/namespaces/inkscape"
        width="512"
        height="512"
        id="svg2"
        version="1.1"
        inkscape:version="0.48.4 r9939"
        sodipodi:docname="off-logo-lettered.svg">
    <defs
            id="defs4"/>
    <sodipodi:namedview
            id="base"
            pagecolor="#ffffff"
            bordercolor="#666666"
            borderopacity="1.0"
            inkscape:pageopacity="0.0"
            inkscape:pageshadow="2"
            inkscape:zoom="0.70000001"
            inkscape:cx="86.167146"
            inkscape:cy="189.42878"
            inkscape:document-units="px"
            inkscape:current-layer="g3470"
            showgrid="false"
            showguides="true"
            inkscape:guide-bbox="true"
            inkscape:window-width="2495"
            inkscape:window-height="1056"
            inkscape:window-x="65"
            inkscape:window-y="24"
            inkscape:window-maximized="1"/>
    <metadata
            id="metadata7">
        <rdf:RDF>
            <cc:Work
                    rdf:about="">
                <dc:format>image/svg+xml</dc:format>
                <dc:type
                        rdf:resource="http://purl.org/dc/dcmitype/StillImage"/>
                <dc:title></dc:title>
            </cc:Work>
        </rdf:RDF>
    </metadata>
    <g
            inkscape:label="Layer 1"
            inkscape:groupmode="layer"
            id="layer1"
            transform="translate(0,-540.36218)">
        <g
                id="g3345"/>
        <g
                id="g3470"
                transform="matrix(1.1493292,0,0,1.1493292,-134.09525,290.41628)">
            <g
                    id="g3022"
                    transform="translate(0,1.7401484)">
                <g
                        id="g3419">
                    <path
                            sodipodi:type="arc"
                            style="fill:#893951;fill-opacity:1;stroke:#000000;stroke-width:0;stroke-miterlimit:4;stroke-opacity:0.41176471;stroke-dasharray:none"
                            id="path2987-5"
                            sodipodi:cx="377.29196"
                            sodipodi:cy="522.53717"
                            sodipodi:rx="202.53558"
                            sodipodi:ry="202.53558"
                            d="m 579.82755,522.53717 c 0,111.85731 -90.67827,202.53558 -202.53559,202.53558 -111.85731,0 -202.53558,-90.67827 -202.53558,-202.53558 0,-111.85731 90.67827,-202.53558 202.53558,-202.53558 111.85732,0 202.53559,90.67827 202.53559,202.53558 z"
                            transform="matrix(1.0997506,0,0,1.0997506,-75.515815,-134.45084)"/>
                    <path
                            sodipodi:type="arc"
                            style="fill:#8a3951;fill-opacity:1;stroke:#000000;stroke-width:0;stroke-miterlimit:4;stroke-opacity:0.41176471;stroke-dasharray:none"
                            id="path3854"
                            sodipodi:cx="332.34018"
                            sodipodi:cy="374.54984"
                            sodipodi:rx="67.680222"
                            sodipodi:ry="67.680222"
                            d="m 400.0204,374.54984 c 0,37.37875 -30.30147,67.68022 -67.68022,67.68022 -37.37875,0 -67.68022,-30.30147 -67.68022,-67.68022 0,-37.37876 30.30147,-67.68023 67.68022,-67.68023 37.37875,0 67.68022,30.30147 67.68022,67.68023 z"
                            transform="matrix(1.0820896,0,0,1.0820896,-97.487259,-37.312618)"/>
                    <g
                            transform="matrix(0.79765024,0,0,0.83894985,10.756646,242.26983)"
                            id="g3074"
                            style="fill:#b92e43;fill-opacity:1">
                        <path
                                style="fill:#b92e43;fill-opacity:1"
                                inkscape:connector-curvature="0"
                                d="m 630.212,247.44 c 2.502,-2.081 4.967,-4.198 7.395,-6.352 h -8.238 c -0.053,2.124 -0.135,4.242 -0.24,6.352 h 1.083 z"
                                id="path3076"/>
                        <path
                                inkscape:connector-curvature="0"
                                d="m 579.996,281.674 h -24.561 v -4.889 h -7.619 v -8.683 h 7.619 v -7.221 h -32.748 v -4.313 h 25.127 v -2.157 h 7.621 26.385 v -6.971 h 47.307 c 0.105,-2.11 0.188,-4.228 0.24,-6.352 h -50.994 v -10.68 h 51.006 c -0.02,-1.259 -0.063,-2.516 -0.111,-3.769 h -20.113 v -10.68 h 10.68 v -8.166 h -118.73 v -5.339 H 619.834 V 199 h -27.969 v -2.982 h 27.969 V 184.684 H 555.947 V 172.92 h 65.088 c -0.504,-1.818 -1.025,-3.625 -1.568,-5.426 h -45.299 v -5.968 h 43.41 c -0.619,-1.862 -1.262,-3.715 -1.924,-5.556 h -84.391 v -7.629 H 504.88 v -5.537 H 431.382 V 131.04 h 73.498 v -5.425 h -96.557 v -5.969 h 96.557 v -9.4 h 37.271 V 93.974 H 438.923 v -7.42 h 23.242 V 70.247 H 438.923 V 66.451 H 423.4 v -2.984 h 15.523 V 59.289 H 384.274 V 56.306 H 423.4 V 56.4 h 23.24 V 44.583 h -7.717 V 41.466 H 388.67 V 35.5 h 50.253 v -5.846 h 23.242 V 26.9 h -23.242 v -2.297 h 33.918 V 14.549 C 448.705,6.117 422.767,1.518 395.75,1.518 c -129.065,0 -233.691,104.626 -233.691,233.69 0,4.421 0.135,8.809 0.377,13.167 61.412,50.517 145,78.291 233.314,78.291 66.484,0 130.353,-15.085 184.246,-44.992 z M 332.623,106.135 c -2.005,14.457 -9.213,29.846 -20.295,43.331 -15.844,19.28 -36.883,31.257 -54.903,31.257 -7.769,0 -14.688,-2.31 -20.004,-6.682 -18.006,-14.797 -13.7,-49.899 9.594,-78.247 15.845,-19.28 36.883,-31.257 54.903,-31.257 7.77,0 14.686,2.31 20.005,6.68 8.997,7.391 12.796,19.792 10.7,34.918 z"
                                id="path3078"
                                style="fill:#b92e43;fill-opacity:1"/>
                        <path
                                inkscape:connector-curvature="0"
                                d="m 395.75,332.681 c -87.404,0 -170.337,-27.986 -232.521,-76.826 10.427,104.519 89.72,188.75 191.846,206.676 v -5.147 h 66.909 v -2.913 h 46.613 c 7.863,-2.578 15.549,-5.548 23.018,-8.913 h -29.449 -65.308 v -3.65 h 65.308 v -5.981 h -93.629 v -10.052 h 93.629 v -11.098 h 36.791 v -2.092 h 45.465 c 1.91,-1.578 3.785,-3.194 5.645,-4.83 h -37.318 v -8.685 h 25.936 v -7.218 h -51.066 v -4.314 h 25.129 v -2.158 h 32.58 v -5.408 h 31.52 c 2.715,-3.322 5.33,-6.723 7.859,-10.19 h -16.68 v -4.313 h 4.697 v -13.797 h -71.877 v -6.441 h 91.02 v -3.27 h -59 v -6.444 h 59 v -6.704 H 556.9 v -10.68 h 34.963 v -7.226 h -13.49 v -5.338 h 26.387 v -19.201 h 18.379 c 0.297,-1.252 0.576,-2.509 0.854,-3.77 H 588.47 C 532.464,314.95 465.5,332.681 395.75,332.681 z"
                                id="path3080"
                                style="fill:#b92e43;fill-opacity:1"/>
                        <g
                                id="g3082"
                                style="fill:#b92e43;fill-opacity:1">
                            <path
                                    inkscape:connector-curvature="0"
                                    d="m 276.31,144.557 c -0.403,-1.177 -0.618,-2.484 -0.64,-3.884 l -0.019,-1.292 h -42.766 l -0.149,1.141 c -1.012,7.75 -0.209,14.785 2.319,20.348 l 0.517,1.135 41.145,-16.261 -0.407,-1.187 z"
                                    id="path3084"
                                    style="fill:#b92e43;fill-opacity:1"/>
                            <path
                                    inkscape:connector-curvature="0"
                                    d="m 306.476,129.979 c -0.297,2.13 -1.001,4.343 -2.091,6.576 l -0.518,1.061 6.604,4.138 0.721,-0.99 c 4.866,-6.69 8.709,-13.704 11.421,-20.845 l 1.619,-4.263 -17.667,13.365 -0.089,0.958 z"
                                    id="path3086"
                                    style="fill:#b92e43;fill-opacity:1"/>
                            <path
                                    inkscape:connector-curvature="0"
                                    d="m 268.45,83.859 c -6.095,4.533 -11.688,9.878 -16.625,15.887 -0.329,0.4 -0.648,0.805 -0.967,1.209 l -1.218,1.538 33.275,21.972 0.756,-0.734 c 1.201,-1.162 2.484,-2.197 3.818,-3.079 l 0.975,-0.644 -18.764,-37.077 -1.25,0.928 z"
                                    id="path3088"
                                    style="fill:#b92e43;fill-opacity:1"/>
                            <path
                                    inkscape:connector-curvature="0"
                                    d="m 317.97,76.028 c -2.796,-2.297 -6.146,-3.861 -9.967,-4.652 l -1.5,-0.31 -2.41,49.352 0.311,0.387 c 0.301,0.375 0.572,0.781 0.813,1.208 l 0.736,1.312 20.03,-15.15 0.09,-0.506 c 0.143,-0.799 0.271,-1.593 0.385,-2.388 1.785,-12.901 -1.229,-23.289 -8.488,-29.253 z"
                                    id="path3090"
                                    style="fill:#b92e43;fill-opacity:1"/>
                            <path
                                    inkscape:connector-curvature="0"
                                    d="m 280.902,149.827 -0.518,-0.25 -42.123,16.648 1.39,1.412 c 0.624,0.634 1.169,1.142 1.722,1.597 4.252,3.493 9.651,5.265 16.052,5.265 7.991,0 17.022,-2.832 26.116,-8.189 l 0.533,-0.314 2.406,-15.17 -1.491,-0.044 c -1.487,-0.043 -2.863,-0.365 -4.087,-0.955 z"
                                    id="path3092"
                                    style="fill:#b92e43;fill-opacity:1"/>
                            <path
                                    inkscape:connector-curvature="0"
                                    d="m 300.406,142.563 c -2.37,2.759 -5.171,4.98 -8.098,6.426 l -0.609,0.3 -2.083,13.132 2.617,-2.025 c 5.08,-3.932 9.854,-8.51 14.191,-13.606 l 0.983,-1.157 -6.269,-3.925 -0.732,0.855 z"
                                    id="path3094"
                                    style="fill:#b92e43;fill-opacity:1"/>
                            <path
                                    inkscape:connector-curvature="0"
                                    d="m 293.954,117.769 c 1.416,-0.324 2.755,-0.42 4.004,-0.317 l 1.354,0.116 2.285,-46.802 -1.445,0.073 c -7.858,0.396 -16.608,3.404 -25.307,8.699 l -1.035,0.631 19.143,37.83 1.001,-0.23 z"
                                    id="path3096"
                                    style="fill:#b92e43;fill-opacity:1"/>
                            <path
                                    inkscape:connector-curvature="0"
                                    d="m 277.041,133.621 c 0.565,-1.475 1.27,-2.903 2.092,-4.246 l 0.664,-1.081 -33.05,-21.82 -0.726,1.08 c -5.473,8.146 -9.537,16.882 -11.754,25.262 l -0.436,1.647 h 42.887 l 0.323,-0.842 z"
                                    id="path3098"
                                    style="fill:#b92e43;fill-opacity:1"/>
                        </g>
                    </g>
                    <path
                            sodipodi:type="arc"
                            style="fill:#b92e43;fill-opacity:1;stroke:#000000;stroke-width:0;stroke-miterlimit:4;stroke-opacity:0.41176471;stroke-dasharray:none"
                            id="path2987"
                            sodipodi:cx="377.29196"
                            sodipodi:cy="522.53717"
                            sodipodi:rx="202.53558"
                            sodipodi:ry="202.53558"
                            d="m 579.82755,522.53717 c 0,111.85731 -90.67827,202.53558 -202.53559,202.53558 -111.85731,0 -202.53558,-90.67827 -202.53558,-202.53558 0,-111.85731 90.67827,-202.53558 202.53558,-202.53558 111.85732,0 202.53559,90.67827 202.53559,202.53558 z"
                            transform="matrix(0.40399003,0,0,0.41645884,99.105786,151.39907)"/>
                    <path
                            style="fill:#893951;fill-opacity:1;stroke:#000000;stroke-width:0;stroke-miterlimit:4;stroke-opacity:0.41176471"
                            d="m 541.209,493.39115 c 0,0 -105.87755,27.7792 -217.9602,27.7792 -64.62988,0 -129.47184,-12.12184 -180.5844,-27.7792 -8.95217,-2.74233 -16.90033,-6.37356 -16.90033,-14.29049 0,-7.91694 7.53755,-14.2905 16.90033,-14.2905 l 41.60995,10.15394 63.71809,10.04911 c 72.15566,11.37982 170.57963,4.7122 293.21656,-20.20305 9.17534,-1.86409 16.90034,6.37356 16.90034,14.2905 0,7.91693 -7.53756,14.29049 -16.90034,14.29049 z"
                            id="path3872"
                            inkscape:connector-curvature="0"
                            sodipodi:nodetypes="csssccsssc"/>
                    <g
                            transform="matrix(0.13226526,0,0,0.15510797,187.60016,288.0605)"
                            id="g3197"
                            style="fill:#893951;fill-opacity:1">
                        <title
                                id="title3199">Layer 1
                        </title>
                        <path
                                sodipodi:nodetypes="sssscsssccssscssccss"
                                inkscape:connector-curvature="0"
                                id="path3329"
                                d="M 291.3592,834.14704 C 46.870303,763.29937 -77.666759,529.48702 4.8316154,309.8814 21.55046,265.37686 35.909442,238.99991 47.097197,219.38418 c 10.335069,-18.12069 18.81934,-25.64276 29.076659,-37.81657 7.329952,-8.69949 13.532947,-14.31127 26.665824,-27.25111 0,0 14.25082,-11.00708 29.09772,-20.18527 21.25356,-13.1387 39.30951,-25.34021 59.1491,-6.42868 69.49116,66.24054 36.64765,34.90262 67.44364,66.86166 20.59472,21.37251 16.36592,15.47662 -8.06206,38.15904 l -18.6455,22.60518 c -30.22953,39.21874 -26.81686,32.50829 -52.61771,105.08263 -47.29998,133.0485 25.91732,273.54697 174.00747,316.46034 148.09019,42.91337 310.50073,-29.2246 362.54976,-160.9775 23.54718,-59.60554 19.82083,-120.92748 -4.4149,-174.48643 -18.64527,-21.15544 -42.69604,-62.63584 -14.2003,-77.9552 42.276,-22.72767 67.23455,-32.18388 119.91846,-53.53476 23.27217,-9.43137 42.08757,21.81218 52.58708,40.20484 l 1.69142,-0.75503 c 51.81464,94.82059 62.43258,207.99733 19.29157,317.20114 C 804.3044,785.10019 535.84812,904.99471 291.3592,834.14704 z"
                                style="fill:#893951;fill-opacity:1;fill-rule:evenodd;stroke-width:3.80584407;stroke-linecap:round;stroke-linejoin:round;stroke-miterlimit:4;stroke-opacity:0.84117599;stroke-dasharray:7.611689, 7.611689;stroke-dashoffset:0;marker-start:none;marker-mid:none;marker-end:none"/>
                        <path
                                sodipodi:nodetypes="scsssssscssss"
                                inkscape:connector-curvature="0"
                                id="path8"
                                d="m 362.07347,452.26338 c -49.07435,-14.2207 13.6794,-258.18466 32.96883,-302.3587 0,0 76.61907,-192.367696 219.37705,-322.26221 102.29018,-93.07314 204.79538,-150.83056 341.74481,-202.62661 56.73994,-21.45976 295.80954,-52.38714 346.49654,-43.09533 131.1245,24.0374 -152.2843,106.04723 -234.2312,138.80051 -57.3742,22.9318 -132.9508,55.34154 -186.56656,89.30326 -29.81645,18.88658 -90.50831,63.9822 -129.06852,101.177948 -17.07057,16.466547 -49.25205,50.284406 -56.82777,58.85374 0,0 -34.03625,46.150805 -74.35259,117.870579 -26.58685,47.296053 -51.86598,112.368163 -70.08456,200.569793 -9.4081,45.54739 -22.2159,124.8326 -23.00771,155.39197 -1.22124,47.13272 -117.37402,22.59573 -166.44832,8.37505 z"
                                style="fill:#893951;fill-opacity:1;fill-rule:evenodd;stroke-width:3.80584407;stroke-linecap:round;stroke-linejoin:round;stroke-miterlimit:4;stroke-opacity:0.84117599;stroke-dasharray:7.611689, 7.611689;stroke-dashoffset:0;marker-start:none;marker-mid:none;marker-end:none"/>
                    </g>
                    <path
                            sodipodi:type="arc"
                            style="fill:#b92e43;fill-opacity:1;stroke:#000000;stroke-width:0;stroke-miterlimit:4;stroke-opacity:0.41176471;stroke-dasharray:none"
                            id="path3335"
                            sodipodi:cx="155.56349"
                            sodipodi:cy="459.65518"
                            sodipodi:rx="15.657364"
                            sodipodi:ry="17.425131"
                            d="m 171.22086,459.65518 c 0,9.62364 -7.01004,17.42513 -15.65737,17.42513 -8.64732,0 -15.65736,-7.80149 -15.65736,-17.42513 0,-9.62363 7.01004,-17.42513 15.65736,-17.42513 8.64733,0 15.65737,7.8015 15.65737,17.42513 z"
                            transform="matrix(1.6878826,0,0.08515328,0.90073558,-134.80215,40.194103)"/>
                    <path
                            sodipodi:type="arc"
                            style="fill:#b92e43;fill-opacity:1;stroke:#000000;stroke-width:0;stroke-miterlimit:4;stroke-opacity:0.41176471;stroke-dasharray:none"
                            id="path3337"
                            sodipodi:cx="166.60715"
                            sodipodi:cy="466.91577"
                            sodipodi:rx="4.8214288"
                            sodipodi:ry="4.5535712"
                            d="m 171.42858,466.91577 c 0,2.51487 -2.15863,4.55357 -4.82143,4.55357 -2.6628,0 -4.82143,-2.0387 -4.82143,-4.55357 0,-2.51487 2.15863,-4.55357 4.82143,-4.55357 2.6628,0 4.82143,2.0387 4.82143,4.55357 z"
                            transform="translate(-1.4285714,-2.8928571)"/>
                </g>
                <rect
                        style="fill:#b92e43;fill-opacity:1;stroke:#000000;stroke-width:0;stroke-miterlimit:4;stroke-opacity:0.41176471;stroke-dasharray:none"
                        id="rect3373"
                        width="27.054323"
                        height="23.25345"
                        x="233.83051"
                        y="448.12085"
                        transform="matrix(0.83326186,-0.55287854,0.17119765,0.98523671,0,0)"/>
                <rect
                        style="fill:#b92e43;fill-opacity:1;stroke:#000000;stroke-width:0;stroke-miterlimit:4;stroke-opacity:0.41176471;stroke-dasharray:none"
                        id="rect3373-6"
                        width="23.593664"
                        height="20.27898"
                        x="-319.67874"
                        y="113.69249"
                        transform="matrix(-0.79898201,-0.60135493,-0.22936588,0.97334028,0,0)"/>
                <rect
                        style="fill:#b92e43;fill-opacity:1;stroke:#000000;stroke-width:0;stroke-miterlimit:4;stroke-opacity:0.41176471;stroke-dasharray:none"
                        id="rect3413"
                        width="29.7995"
                        height="29.7995"
                        x="278.31131"
                        y="313.30594"
                        transform="matrix(0.99014541,0.14004311,-0.14004311,0.99014541,0,0)"/>
            </g>
            <g
                    style="font-size:70.90444946px;font-style:normal;font-variant:normal;font-weight:bold;font-stretch:normal;line-height:125%;letter-spacing:0px;word-spacing:0px;fill:#ffffff;fill-opacity:1;stroke:none;font-family:Odin Rounded;-inkscape-font-specification:Odin Rounded Bold"
                    id="text3020">
                <path
                        d="m 170.90303,473.22302 c 13.11731,0 23.82389,-11.13201 23.82389,-24.81655 0,-13.68455 -10.70658,-24.81656 -23.82389,-24.81656 -13.11731,0 -23.75299,11.13201 -23.75299,24.81656 0,13.68454 10.63568,24.81655 23.75299,24.81655 m 0,-41.33729 c 8.57943,0 15.52807,7.37407 15.52807,16.52074 0,9.14666 -6.94864,16.52073 -15.52807,16.52073 -8.50853,0 -15.45717,-7.37407 -15.45717,-16.52073 0,-9.14667 6.94864,-16.52074 15.45717,-16.52074"
                        style="-inkscape-font-specification:Odin Rounded Bold"
                        id="path3044"/>
                <path
                        d="m 204.57932,423.58991 c -2.26894,0 -4.11246,1.84352 -4.11246,4.11246 l 0,41.40819 c 0,2.26894 1.84352,4.11246 4.11246,4.11246 2.26894,0 4.18336,-1.84352 4.18336,-4.11246 l 0,-16.59164 16.52074,0 c 2.26894,0 4.11245,-1.84351 4.11245,-4.11245 0,-2.26894 -1.84351,-4.11246 -4.11245,-4.11246 l -16.52074,0 0,-12.40828 20.63319,0 c 2.26894,0 4.18337,-1.84352 4.18337,-4.18336 0,-2.26894 -1.91443,-4.11246 -4.18337,-4.11246 l -24.81655,0"
                        style="-inkscape-font-specification:Odin Rounded Bold"
                        id="path3046"/>
                <path
                        d="m 243.35519,423.58991 c -2.26894,0 -4.11246,1.84352 -4.11246,4.11246 l 0,41.40819 c 0,2.26894 1.84352,4.11246 4.11246,4.11246 2.26894,0 4.18336,-1.84352 4.18336,-4.11246 l 0,-16.59164 16.52074,0 c 2.26894,0 4.11246,-1.84351 4.11246,-4.11245 0,-2.26894 -1.84352,-4.11246 -4.11246,-4.11246 l -16.52074,0 0,-12.40828 20.6332,0 c 2.26894,0 4.18336,-1.84352 4.18336,-4.18336 0,-2.26894 -1.91442,-4.11246 -4.18336,-4.11246 l -24.81656,0"
                        style="-inkscape-font-specification:Odin Rounded Bold"
                        id="path3048"/>
                <path
                        d="m 313.29911,442.30868 c -2.76527,-1.13447 -5.45964,-2.41075 -5.45964,-5.88507 l 0,-0.28361 c 0.0709,-2.55256 2.76527,-4.32518 6.23959,-4.32518 l 0.42542,0 c 1.27628,0.0709 2.69437,0.56724 3.75794,1.41809 0.77995,0.56724 1.6308,0.77995 2.48166,0.77995 1.27627,0 2.48165,-0.56723 3.3325,-1.6308 0.56724,-0.70904 0.85086,-1.6308 0.85086,-2.48166 0,-1.20537 -0.56724,-2.41075 -1.6308,-3.2616 -2.48166,-1.84351 -5.53055,-3.04889 -8.50854,-3.1198 l -0.63814,0 c -3.68703,0 -7.16135,1.20538 -9.71391,3.1907 -3.04889,2.26894 -4.67969,5.53055 -4.8215,9.14668 l 0,0.56723 c 0,6.3814 3.68704,10.9902 10.99019,13.61366 l 0.28362,0.14181 c 2.69436,0.77994 8.86305,3.68703 9.07577,6.94863 l 0,0.28362 c 0,1.91442 -0.77995,3.68703 -2.19804,5.10512 -1.48899,1.48899 -3.54523,2.26894 -6.02688,2.26894 l -0.35452,0 c -2.90708,-0.0709 -5.31784,-1.6308 -6.45231,-4.11246 -0.70904,-1.55989 -2.26894,-2.41075 -3.82884,-2.41075 -0.56723,0 -1.13447,0.0709 -1.7017,0.35453 -1.5599,0.70904 -2.41075,2.19804 -2.41075,3.75793 0,0.56724 0.0709,1.20538 0.35452,1.77261 2.48165,5.31783 7.72859,8.72125 13.75546,8.93396 l 0.56724,0 c 4.67969,0 8.93396,-1.70171 12.05375,-4.8215 2.83618,-2.83617 4.46698,-6.73593 4.46698,-10.84838 l 0,-0.70904 c -0.42542,-9.78481 -12.7628,-13.75547 -14.88993,-14.39361"
                        style="-inkscape-font-specification:Odin Rounded Bold"
                        id="path3050"/>
                <path
                        d="m 365.67976,424.36986 c -0.70904,-0.49633 -1.5599,-0.77995 -2.33985,-0.77995 -1.34718,0 -2.62346,0.63814 -3.40341,1.77261 l -11.132,15.81169 -11.06109,-15.81169 c -0.77995,-1.13447 -2.05623,-1.77261 -3.40342,-1.77261 -2.55255,0 -4.11245,2.19804 -4.11245,4.32517 0,0.85085 0.28361,1.5599 0.77994,2.19804 l 13.68456,19.56963 0,19.42781 c 0,2.26894 1.84352,4.11246 4.11246,4.11246 2.33985,0 4.18336,-1.84352 4.18336,-4.11246 l 0,-19.42781 13.68456,-19.56963 c 0.49633,-0.70905 0.77995,-1.5599 0.77995,-2.41075 0,-1.27628 -0.63814,-2.55257 -1.77261,-3.33251"
                        style="-inkscape-font-specification:Odin Rounded Bold"
                        id="path3052"/>
                <path
                        d="m 385.17295,442.30868 c -2.76527,-1.13447 -5.45964,-2.41075 -5.45964,-5.88507 l 0,-0.28361 c 0.0709,-2.55256 2.76527,-4.32518 6.23959,-4.32518 l 0.42542,0 c 1.27628,0.0709 2.69437,0.56724 3.75794,1.41809 0.77995,0.56724 1.6308,0.77995 2.48166,0.77995 1.27627,0 2.48165,-0.56723 3.33251,-1.6308 0.56723,-0.70904 0.85085,-1.6308 0.85085,-2.48166 0,-1.20537 -0.56724,-2.41075 -1.6308,-3.2616 -2.48166,-1.84351 -5.53055,-3.04889 -8.50854,-3.1198 l -0.63814,0 c -3.68703,0 -7.16135,1.20538 -9.71391,3.1907 -3.04889,2.26894 -4.67969,5.53055 -4.8215,9.14668 l 0,0.56723 c 0,6.3814 3.68704,10.9902 10.99019,13.61366 l 0.28362,0.14181 c 2.69436,0.77994 8.86305,3.68703 9.07577,6.94863 l 0,0.28362 c 0,1.91442 -0.77995,3.68703 -2.19804,5.10512 -1.48899,1.48899 -3.54523,2.26894 -6.02688,2.26894 l -0.35452,0 c -2.90708,-0.0709 -5.31784,-1.6308 -6.45231,-4.11246 -0.70904,-1.55989 -2.26894,-2.41075 -3.82884,-2.41075 -0.56723,0 -1.13447,0.0709 -1.7017,0.35453 -1.5599,0.70904 -2.41075,2.19804 -2.41075,3.75793 0,0.56724 0.0709,1.20538 0.35452,1.77261 2.48165,5.31783 7.72859,8.72125 13.75546,8.93396 l 0.56724,0 c 4.67969,0 8.93396,-1.70171 12.05375,-4.8215 2.83618,-2.83617 4.46698,-6.73593 4.46698,-10.84838 l 0,-0.70904 c -0.42542,-9.78481 -12.7628,-13.75547 -14.88993,-14.39361"
                        style="-inkscape-font-specification:Odin Rounded Bold"
                        id="path3054"/>
                <path
                        d="m 406.21385,423.58991 c -2.26894,0 -4.11246,1.84352 -4.11246,4.11246 0,2.33984 1.84352,4.18336 4.11246,4.18336 l 8.29582,0 0,37.22483 c 0,2.26894 1.84352,4.11246 4.11246,4.11246 2.26894,0 4.18336,-1.84352 4.18336,-4.11246 l 0,-37.22483 8.22492,0 c 2.26894,0 4.18336,-1.84352 4.18336,-4.18336 0,-2.26894 -1.91442,-4.11246 -4.18336,-4.11246 l -24.81656,0"
                        style="-inkscape-font-specification:Odin Rounded Bold"
                        id="path3056"/>
                <path
                        d="m 467.75006,464.9272 -18.57697,0 0,-12.40828 14.46451,0 c 2.26894,0 4.11246,-1.84351 4.11246,-4.11245 0,-2.26894 -1.84352,-4.11246 -4.11246,-4.11246 l -14.46451,0 0,-12.40828 18.57697,0 c 2.33984,0 4.18336,-1.84352 4.18336,-4.18336 0,-2.26894 -1.84352,-4.11246 -4.18336,-4.11246 l -22.68943,0 c -2.33984,0 -4.18336,1.84352 -4.18336,4.11246 l 0,41.40819 c 0,2.26894 1.84352,4.11246 4.18336,4.11246 l 22.68943,0 c 2.33984,0 4.18336,-1.84352 4.18336,-4.11246 0,-2.33984 -1.84352,-4.18336 -4.18336,-4.18336"
                        style="-inkscape-font-specification:Odin Rounded Bold"
                        id="path3058"/>
                <path
                        d="m 518.91314,473.22302 c 2.33985,0 4.18336,-1.84352 4.18336,-4.11246 l 0,-41.40819 c 0,-2.19804 -1.77261,-4.11246 -4.18336,-4.11246 -1.27628,0 -2.48165,0.56723 -3.2616,1.6308 l -15.31536,20.42048 -15.31537,-20.42048 c -0.77994,-1.06357 -1.98532,-1.6308 -3.2616,-1.6308 -2.41075,0 -4.18336,1.91442 -4.18336,4.11246 l 0,41.40819 c 0,2.26894 1.84352,4.11246 4.11246,4.11246 2.33984,0 4.18336,-1.84352 4.18336,-4.11246 l 0,-28.99992 11.132,14.88994 c 0.77995,1.06356 2.05623,1.70171 3.33251,1.70171 1.27627,0 2.55256,-0.63815 3.33251,-1.70171 l 11.13199,-14.88994 0,28.99992 c 0,2.26894 1.84352,4.11246 4.11246,4.11246"
                        style="-inkscape-font-specification:Odin Rounded Bold"
                        id="path3060"/>
            </g>
        </g>
    </g>
</svg>
