<?xml version="1.0" encoding="UTF-8" standalone="no"?>
<!-- Svg Vector Icons : http://www.onlinewebfonts.com/icon -->

<svg
   xmlns:dc="http://purl.org/dc/elements/1.1/"
   xmlns:cc="http://creativecommons.org/ns#"
   xmlns:rdf="http://www.w3.org/1999/02/22-rdf-syntax-ns#"
   xmlns:svg="http://www.w3.org/2000/svg"
   xmlns="http://www.w3.org/2000/svg"
   xmlns:sodipodi="http://sodipodi.sourceforge.net/DTD/sodipodi-0.dtd"
   xmlns:inkscape="http://www.inkscape.org/namespaces/inkscape"
   version="1.1"
   x="0px"
   y="0px"
   viewBox="0 0 1000 1000"
   enable-background="new 0 0 1000 1000"
   xml:space="preserve"
   id="svg2"
   inkscape:version="0.48.4 r9939"
   width="100%"
   height="100%"
   sodipodi:docname="upload.svg"><defs
     id="defs47" /><sodipodi:namedview
     pagecolor="#ffffff"
     bordercolor="#666666"
     borderopacity="1"
     objecttolerance="10"
     gridtolerance="10"
     guidetolerance="10"
     inkscape:pageopacity="0"
     inkscape:pageshadow="2"
     inkscape:window-width="2495"
     inkscape:window-height="1056"
     id="namedview45"
     showgrid="false"
     inkscape:zoom="0.236"
     inkscape:cx="-241.52542"
     inkscape:cy="500"
     inkscape:window-x="65"
     inkscape:window-y="24"
     inkscape:window-maximized="1"
     inkscape:current-layer="svg2" /><metadata
     id="metadata4"> Svg Vector Icons : http://www.onlinewebfonts.com/icon <rdf:RDF><cc:Work
     rdf:about=""><dc:format>image/svg+xml</dc:format><dc:type
       rdf:resource="http://purl.org/dc/dcmitype/StillImage" /></cc:Work></rdf:RDF></metadata><g
     id="g6"
     style="fill:#878787;stroke:none;fill-opacity:0.94117647"><g
       id="g8"
       style="fill:#878787;stroke:none;fill-opacity:0.94117647"><g
         id="Cloud_x5F_upload"
         style="fill:#878787;stroke:none;fill-opacity:0.94117647"><g
           id="g11"
           style="fill:#878787;stroke:none;fill-opacity:0.94117647"><path
             d="M545,426.2c-7.8-7.8-18.6-12.7-30.6-12.7c-11.9,0-22.7,4.8-30.6,12.7L368.6,541.5c-7.8,7.8-12.7,18.6-12.7,30.6c0,23.9,19.4,43.2,43.2,43.2c11.9,0,22.7-4.8,30.6-12.7l41.5-41.5v270.7c-17.4,13.1-28.8,33.8-28.8,57.3c0,39.8,32.3,72.1,72.1,72.1s72.1-32.3,72.1-72.1c0-23.5-11.4-44.2-28.8-57.3V561.1l41.5,41.5c7.8,7.8,18.6,12.7,30.6,12.7c23.9,0,43.2-19.4,43.2-43.2c0-11.9-4.8-22.7-12.7-30.6L545,426.2z M874.7,370.3c0-117-93-212.1-209.1-215.8C610.2,84.1,524.5,38.8,427.9,38.8c-160.9,0-292,125.6-301.7,284C57.2,358.9,10,431.1,10,514.4c0,119.4,96.8,216.2,216.2,216.2h57.6c23.9,0,43.2-19.4,43.2-43.2s-19.4-43.2-43.2-43.2h-57.6c-71.5,0-129.7-58.2-129.7-129.7c0-48.4,26.7-92.4,69.8-114.9l43.3-22.6l3-48.7c6.9-113.7,101.6-202.8,215.4-202.8c66.5,0,128.4,30.1,169.8,82.7l24.9,31.6l40.2,1.3c70.3,2.3,125.4,59.1,125.4,129.4v57.6l53.2,22.2c37.7,15.7,62.1,52.3,62.1,93.1c0,55.6-45.3,100.9-100.9,100.9H745c-23.9,0-43.2,19.4-43.2,43.2s19.4,43.2,43.2,43.2h57.6c103.5,0,187.4-83.9,187.4-187.4C990,465.3,942.4,398.5,874.7,370.3z"
             id="path13"
             style="fill:#878787;stroke:none;fill-opacity:0.94117647" /></g></g></g><g
       id="g15"
       style="fill:#878787;stroke:none;fill-opacity:0.94117647" /><g
       id="g17"
       style="fill:#878787;stroke:none;fill-opacity:0.94117647" /><g
       id="g19"
       style="fill:#878787;stroke:none;fill-opacity:0.94117647" /><g
       id="g21"
       style="fill:#878787;stroke:none;fill-opacity:0.94117647" /><g
       id="g23"
       style="fill:#878787;stroke:none;fill-opacity:0.94117647" /><g
       id="g25"
       style="fill:#878787;stroke:none;fill-opacity:0.94117647" /><g
       id="g27"
       style="fill:#878787;stroke:none;fill-opacity:0.94117647" /><g
       id="g29"
       style="fill:#878787;stroke:none;fill-opacity:0.94117647" /><g
       id="g31"
       style="fill:#878787;stroke:none;fill-opacity:0.94117647" /><g
       id="g33"
       style="fill:#878787;stroke:none;fill-opacity:0.94117647" /><g
       id="g35"
       style="fill:#878787;stroke:none;fill-opacity:0.94117647" /><g
       id="g37"
       style="fill:#878787;stroke:none;fill-opacity:0.94117647" /><g
       id="g39"
       style="fill:#878787;stroke:none;fill-opacity:0.94117647" /><g
       id="g41"
       style="fill:#878787;stroke:none;fill-opacity:0.94117647" /><g
       id="g43"
       style="fill:#878787;stroke:none;fill-opacity:0.94117647" /></g></svg>